<svg width="56" height="65" viewBox="0 0 56 65" fill="none" xmlns="http://www.w3.org/2000/svg">
<path d="M55.6267 10.7983C55.6513 11.9881 55.1474 13.1776 54.2447 13.9545C53.09 15.0139 51.3298 15.2308 49.8912 14.6915C48.4654 14.1383 47.4114 12.7207 47.3303 11.1803C47.222 9.97658 47.604 8.71364 48.4713 7.85646C49.2889 6.98076 50.5064 6.55297 51.6892 6.62537C52.9066 6.65137 54.0821 7.26811 54.8091 8.24788C55.3691 8.97046 55.6344 9.88852 55.6267 10.7983Z" fill="#0F172A"/>
<path d="M55.6267 29.6188C55.6515 30.8095 55.1484 32.0006 54.2447 32.7781C53.09 33.8376 51.3298 34.0546 49.8912 33.5154C48.4646 32.9619 47.4107 31.543 47.3302 30.0018C47.2182 28.7972 47.6254 27.551 48.4698 26.6811C49.2699 25.7841 50.5005 25.3763 51.6795 25.4459C53.2303 25.4888 54.6383 26.5507 55.2794 27.9426C55.5167 28.4669 55.6281 29.044 55.6267 29.6188Z" fill="#0F172A"/>
<path d="M41.9058 23.895C42.05 32.9931 38.0104 41.8367 31.6037 48.1703C23.6249 56.1852 13.1848 61.2826 2.54303 64.6882C1.12728 65.4587 -1.00791 64.4429 1.22218 63.3961C5.51045 61.436 9.9646 59.7532 13.9147 57.1129C22.64 51.6909 30.0029 43.1527 31.7899 32.7546C32.8313 26.4252 32.5413 19.8364 30.9631 13.6216C29.8051 9.05231 26.6539 4.33532 21.6642 3.66009C17.1359 2.96351 12.3225 4.53996 9.09085 7.83148C8.24099 8.6971 6.58639 11.0948 6.85943 13.8438C8.78895 12.3209 8.65723 12.4904 10.2396 11.7813C13.8829 10.1487 18.7154 12.4701 19.6241 16.5018C20.5923 20.2067 19.8437 24.9206 16.2054 26.8958C12.4067 28.9719 6.80099 28.1125 4.68044 24.0259C1.1698 17.7305 3.10022 9.12318 8.77497 4.75474C14.5541 -0.0654432 22.9865 -0.253453 29.7926 2.21943C36.7943 4.83649 40.9676 12.1281 41.6427 19.3501C41.8263 20.8574 41.9057 22.3769 41.9058 23.895Z" fill="#0F172A"/>
</svg>
