<svg width="48" height="133" viewBox="0 0 48 133" fill="none" xmlns="http://www.w3.org/2000/svg">
<path fill-rule="evenodd" clip-rule="evenodd" d="M27.4716 72.9269C25.4395 73.3433 23.5563 74.4574 21.7588 76.2321C19.9591 78.0394 18.9957 80.1008 18.8382 82.3815C18.7392 83.815 19.117 85.4778 19.9456 87.2699C20.772 89.0946 22.1225 90.4644 23.9293 91.4074C24.5414 91.5805 24.813 91.9266 24.7815 92.3827C24.7703 92.5456 24.5302 92.6928 23.9656 92.7848C21.0429 91.8304 18.7017 90.0649 16.9701 87.5558C15.2408 85.0142 14.4493 82.2098 14.5999 79.0776C14.9297 75.7286 16.1589 72.6707 18.2854 69.9366C20.4468 67.1721 23.1053 65.2931 26.261 64.2994L24.8044 52.5779C19.4828 56.4011 15.0978 60.4526 11.6123 64.7953C8.12902 69.1054 6.15499 73.9124 5.65753 79.214C5.55866 81.5969 5.88922 83.9439 6.65144 86.2224C7.4114 88.5336 8.64472 90.6482 10.3469 92.6315C13.7862 96.5677 18.4583 98.8213 24.2956 99.4201C26.2984 99.4273 28.4478 99.2153 30.7763 98.7866L27.4716 72.9269ZM29.8475 72.7633L33.2164 98.1692C38.3895 96.4963 41.21 92.2714 41.6735 85.5598C41.5346 83.2915 41.0203 81.2265 40.0328 79.3579C39.0801 77.459 37.7409 75.9263 35.9825 74.7576C34.2241 73.5888 32.2009 72.9256 29.8475 72.7633ZM25.4867 38.4177C26.6103 37.8404 27.9311 36.7857 29.3815 35.2817C30.8296 33.8102 32.2653 32.0433 33.6513 30.0437C35.0723 28.0139 36.2341 25.9334 37.1366 23.8024C38.0369 21.7039 38.5381 19.6761 38.6686 17.7865C38.7249 16.9719 38.7158 16.1529 38.6018 15.4249C38.5521 14.243 38.2555 13.3059 37.6772 12.6441C37.0967 12.0148 36.3347 11.6349 35.3541 11.5673C33.393 11.4321 31.5447 12.5159 29.8093 14.8187C28.4559 16.8205 27.2717 19.2267 26.3591 21.9791C25.4116 24.7617 24.7932 27.5344 24.5321 30.3644C24.4728 33.6011 24.8135 36.2762 25.4867 38.4177ZM23.2969 40.1654C22.1906 34.7859 21.7446 29.3538 21.9592 23.869C22.2348 20.3526 22.8216 17.0867 23.7195 14.0715C24.5847 11.054 25.7148 8.48033 27.1144 6.28533C28.4813 4.08808 30.006 2.45822 31.6559 1.39349C33.1334 0.447811 34.1849 -0.036199 34.7406 0.00211034C35.1655 0.0314051 35.5138 0.219097 35.8204 0.534857C36.127 0.850617 36.5182 1.36862 36.9962 2.05628C40.5056 7.83054 42.0078 14.6122 41.4723 22.3663C41.2181 26.0479 40.4803 29.598 39.2523 33.1142C38.0591 36.6001 36.4197 39.8916 34.3383 42.9235C32.222 45.9856 29.8082 48.6017 27.0617 50.8021L28.8229 63.8213C30.2723 63.7576 31.2619 63.6949 31.8175 63.7332C34.3017 63.9044 36.4883 64.5789 38.4755 65.7635C40.4628 66.948 42.1311 68.4707 43.4455 70.3618C44.7622 72.2203 45.734 74.3169 46.361 76.6516C46.9553 78.984 47.216 81.3917 47.045 83.8678C46.7795 87.7123 45.5233 91.1612 43.2785 94.1817C41.0337 97.2023 37.8342 99.306 33.645 100.523C33.7962 102.137 34.0941 104.482 34.5758 107.494C35.0225 110.537 35.3485 112.949 35.5539 114.731C35.7593 116.513 35.773 118.216 35.6583 119.878C35.4805 122.451 34.702 124.689 33.3205 126.624C31.9062 128.556 30.0986 130.002 27.8648 130.961C25.6637 131.923 23.2721 132.314 20.7226 132.138C17.1271 131.891 14.059 130.664 11.516 128.492C8.97522 126.287 7.72377 123.484 7.83151 120.021C8.03531 118.497 8.49385 117.088 9.24206 115.765C9.99027 114.442 10.9493 113.395 12.1518 112.626C13.3239 111.823 14.6955 111.46 16.2385 111.468C17.5132 111.556 18.6979 111.997 19.7946 112.761C20.8565 113.554 21.7064 114.562 22.3096 115.815C22.8801 117.065 23.1474 118.426 23.0484 119.859C22.9156 121.782 22.1494 123.366 20.7497 124.611C19.3501 125.857 17.6358 126.426 15.642 126.289L14.8902 126.237C16.03 128.28 18.0521 129.434 20.9612 129.634C22.432 129.736 23.9581 129.514 25.5021 129.031C27.0811 128.518 28.4121 127.791 29.5628 126.823C30.7134 125.855 31.509 124.796 31.8842 123.644C32.5321 122.346 32.9218 120.507 33.0815 118.194C33.1895 116.63 33.1341 115.055 32.9479 113.471C32.7595 111.919 32.4436 109.835 31.9981 107.251C31.5503 104.7 31.2276 102.713 31.0584 101.359C29.0635 101.713 27.019 101.834 24.8944 101.687C21.3316 101.442 18.0144 100.493 14.9451 98.8082C11.8758 97.1235 9.23702 94.9119 6.99824 92.1388C4.79215 89.3678 3.13154 86.3071 2.02089 82.8915C0.940684 79.5108 0.492761 76.0099 0.707556 72.4238C1.06778 69.1096 1.9093 65.9595 3.29298 63.0433C4.67891 60.0944 6.38045 57.331 8.42804 54.7878C10.4756 52.2447 12.5728 49.9341 14.7174 47.8887C16.8924 45.8781 19.7312 43.2913 23.2969 40.1654Z" fill="#0F172A"/>
</svg>
