<svg width="15" height="39" viewBox="0 0 15 39" fill="none" xmlns="http://www.w3.org/2000/svg">
<path d="M9.5975 24.9245C9.5975 26.6389 8.95477 28.2809 7.19142 30.4847C5.32331 32.8194 3.75076 34.1556 1.6786 35.7269V25.4939C2.14968 24.3043 2.84437 23.3413 3.76566 22.6019C4.68396 21.8654 5.61421 21.4957 6.55637 21.4957C8.11272 21.4957 9.09958 22.3783 9.52594 24.1374C9.57365 24.2805 9.5975 24.5429 9.5975 24.9245ZM9.3739 17.7688C8.08887 17.7688 6.78296 18.1236 5.4532 18.8362C4.12344 19.5458 2.86525 20.4969 1.6786 21.6806V0H0V37.1342C0 38.1837 0.286232 38.7084 0.858683 38.7084C1.18963 38.7084 1.60083 38.4311 2.21528 38.0644C3.95451 37.0264 5.03856 36.3327 6.21646 35.6009C7.55998 34.7662 9.07277 33.7915 11.0734 31.8833C12.4538 30.4969 13.4526 29.0986 14.0728 27.6913C14.6899 26.281 15 24.8857 15 23.4993C15 21.448 14.4544 19.9901 13.3632 19.1285C12.1288 18.2221 10.7961 17.7688 9.3739 17.7688Z" fill="#111729"/>
</svg>
