<svg width="52" height="55" viewBox="0 0 52 55" fill="none" xmlns="http://www.w3.org/2000/svg">
<path d="M0.612171 26.5306C0.612171 30.9252 1.71709 35.4703 3.77623 39.7646C3.09823 40.568 2.97266 42.0497 3.70089 43.506L8.52231 53.3249C8.99943 54.304 10.0792 54.8314 11.1339 54.8314C12.3644 54.8314 13.5697 54.078 13.6953 52.5463L8.17077 41.3214C6.3376 37.5797 4.98157 32.2312 4.98157 26.5557C4.98157 14.1507 13.4442 5.78853 25.9749 5.78853C38.5057 5.78853 46.9934 14.1507 46.9934 26.5557C46.9934 32.2312 45.6123 37.5797 43.7791 41.3214L38.2546 52.5463C38.38 54.078 39.5854 54.8314 40.8409 54.8314C41.8706 54.8314 42.9503 54.304 43.4526 53.3249L48.2489 43.506C48.9771 42.0497 48.8766 40.568 48.1986 39.7646C50.2577 35.4703 51.3629 30.9252 51.3629 26.5306C51.3629 12.1418 41.3934 0.91687 25.9749 0.91687C10.5564 0.91687 0.612171 12.1418 0.612171 26.5306ZM14.3482 35.822C13.4191 33.9134 11.6362 33.4866 10.2801 34.0392C8.77343 34.6669 7.74386 36.4749 8.84877 38.7852L15.1266 51.5169C16.1311 53.576 17.9894 54.304 19.7471 53.4C21.254 52.6469 21.7811 50.9392 20.9023 49.1312L14.3482 35.822ZM37.6014 35.822L31.0474 49.1312C30.1686 50.9392 30.7209 52.6469 32.2277 53.4C33.9854 54.304 35.8186 53.576 36.8483 51.5169L43.1011 38.7852C44.2311 36.4749 43.1763 34.6669 41.6697 34.0392C40.3137 33.4866 38.5557 33.9134 37.6014 35.822Z" fill="#0F172A"/>
</svg>
