<svg width="719" height="639" viewBox="0 0 719 639" fill="none" xmlns="http://www.w3.org/2000/svg">
<path d="M421.571 81.8563C422.606 78.1749 426.59 76.0749 430.47 77.1654C434.35 78.2559 436.657 82.1241 435.623 85.8055L433.248 94.2558C442.483 99.9201 462.786 113.165 473.403 126.208C487.472 143.49 503.414 173.889 503.414 173.889C503.414 173.889 477.4 151.259 458.474 139.084C448.76 132.836 435.589 125.673 425.853 120.567L381.296 279.105C377.158 293.83 346.96 310.699 319.798 303.065C292.636 295.432 278.795 266.186 282.934 251.461C287.072 236.735 312.446 230.987 339.608 238.621C353.37 242.489 364.95 249.049 372.489 256.496L421.571 81.8563Z" fill="#7EA3AE"/>
<path d="M457.007 441.819C461.174 457.598 446.206 475.235 423.577 481.211C400.947 487.187 379.223 479.241 375.056 463.461C370.889 447.682 385.857 430.045 408.486 424.069C421.912 420.523 435.02 421.879 444.331 426.864L417.813 273.882L591.355 228.051L620.908 398.534L620.789 398.566C623.4 414.973 609.047 432.23 587.478 437.926C564.848 443.903 542.843 434.89 538.329 417.796C533.814 400.701 548.5 381.999 571.13 376.023C584.868 372.395 598.375 374.291 607.88 380.166L586.744 249.644L432.485 290.383L457.007 441.819Z" fill="#7EA3AE"/>
<path d="M175.407 23.1021C167.679 26.5313 158.133 36.9602 151.836 48.7598C148.506 54.9895 142.71 70.1933 140.106 79.6581C134.39 100.498 132.771 119.525 134.877 142.286C136.38 158.714 139.099 172.577 145.824 198.35C149.332 211.836 149.446 212.391 148.665 213.243C148.232 213.721 143.784 218.375 138.71 223.53C102.481 260.65 84.2931 285.006 72.1442 312.775C65.0895 328.935 61.2166 347.137 61.0482 364.758C60.9728 370.745 62.5843 384.361 64.1217 390.726C68.4133 408.768 77.0928 426.624 88.3698 440.756C96.3123 450.728 109.261 462.005 120.441 468.7C141.532 481.29 164.832 488.116 186.017 487.839C192.232 487.768 209.627 485.282 215.321 483.706C217.548 483.063 219.453 482.6 219.513 482.688C219.615 482.724 223.121 495.783 227.308 511.703L234.893 540.6L236.291 551.583C237.718 563.228 237.772 566.163 236.457 574.099C233.461 592.672 221.712 606.019 203.372 611.7C198.505 613.225 187.723 614.454 182.157 614.211C172.739 613.713 164.813 611.33 159.648 607.434L156.416 604.97L161.446 603.995C176.529 601.024 185.29 594.721 189.222 584.055C191.148 578.798 191.422 574.496 190.268 567.231C188.576 556.661 184.733 549.857 177.144 544.114C172.35 540.458 168.82 538.789 163.283 537.546C159.961 536.801 158.978 536.775 152.84 537.501C147.476 538.136 145.566 538.552 143.522 539.506C132.287 544.773 124.714 554.067 122.183 565.801C120.813 572.036 120.738 576.362 121.857 582.919C125.131 601.889 138.6 617.564 157.489 624.39C163.174 626.469 168.303 627.57 175.283 628.167C181.817 628.722 197.201 627.044 203.822 625.026C223.252 619.026 236.474 609.016 243.969 594.513C252.025 578.946 252.418 562.39 245.275 535.575C237.647 506.731 230.354 478.653 230.488 478.543C230.574 478.438 232.29 477.618 234.333 476.664C248.153 470.047 261.526 458.833 269.536 447.02C282.596 427.778 286.878 405.163 282.075 380.728C279.235 366.262 275.322 356.382 268.302 345.922C261.573 335.853 252.939 327.908 242.492 322.028C237.19 319.05 226.594 315.228 220.483 314.101C211.307 312.34 199.827 312.228 191.92 313.733C187.556 314.534 187.507 314.54 187.138 313.493C186.921 312.902 185.267 306.787 183.529 299.971C181.737 293.114 178.312 279.903 175.829 270.519L171.364 253.493L172.584 252.21C176.555 248.087 189.389 233.141 194.726 226.484C216.31 199.354 225.318 173.617 225.26 139.179C225.179 114.898 223.458 99.113 218.967 82.2802C212.951 59.6025 203.909 41.1733 193.071 29.5039C185.597 21.4217 182.063 20.1319 175.407 23.1021ZM195.384 74.3017C200.46 75.7884 204.482 79.9619 206.787 86.1889C208.159 89.9168 209.325 98.9355 209.129 104.32C208.713 117.369 203.86 136.399 197.628 149.567C191.853 161.637 179.9 179.467 170.039 190.55C162.95 198.553 158.599 203.195 158.384 203.031C158.168 202.867 156.362 196.296 154.433 188.696C149.72 169.992 149 153.14 152.185 134.924C156.066 113.067 162.731 96.1001 172.022 84.7527C176.648 79.1286 179.46 76.8032 184.089 74.9269C186.895 73.7883 192.394 73.4695 195.384 74.3017ZM169.973 291.423L176.889 317.979L174.277 319.095C163.604 323.727 151.2 334.02 144.289 343.947C133.782 359.091 128.959 375.888 130.233 392.864C131.629 410.87 140.299 427.398 153.781 437.806C161.5 443.819 169.887 447.191 178.338 447.804C181.847 448.053 182.234 448.007 183.256 447.127C184.601 446.066 184.589 444.312 183.291 443.28C182.806 442.91 180.999 442.128 179.261 441.527C166.536 437.102 157.467 427.548 153.386 414.178C147.56 395.178 157.222 372.068 175.485 361.177C178.551 359.343 186.339 356.002 186.775 356.377C186.829 356.418 193.614 382.279 201.805 413.808C211.961 452.838 216.539 471.227 216.223 471.454C215.955 471.675 213.594 472.429 210.938 473.171C197.452 476.807 183.116 478.646 173.278 477.913C153.113 476.456 130.437 467.042 116.63 454.301C99.8641 438.921 90.8548 422.006 88.4293 401.513C87.1168 390.424 87.5738 381.45 89.9355 370.354C94.3047 349.72 103.364 332.28 121.664 309.286C132.964 295.044 162.324 262.818 162.823 264.135C162.969 264.545 166.188 276.831 169.973 291.423ZM206.61 354.219C214.81 354.767 224.397 357.523 231.33 361.447C236.319 364.272 243.926 370.583 247.148 374.614C254.918 384.369 258.415 393.634 259.588 407.681C261.173 426.044 257.019 440.626 246.886 452.311C242.275 457.648 233.012 464.675 228.415 466.405L227.24 466.829L224.811 457.485C223.466 452.331 219.981 439.032 217.046 427.898C201.575 368.811 198.248 356.016 198.137 355.08C198.021 354.098 198.16 354.034 200.362 354.01C201.635 354.002 204.44 354.097 206.61 354.219Z" fill="#7EA3AE"/>
<path d="M608.804 178.33C542.37 156.052 438.758 137.227 290.571 151.6C225.576 157.903 158.713 185.499 100.647 217.463C77.5108 226.767 55.6368 237.021 35.2117 248.103C37.9605 246.3 40.7486 244.491 43.5742 242.677C111.519 199.072 201.817 152.912 289.772 144.382C439.369 129.872 544.442 148.843 612.245 171.581C646.133 182.945 670.675 195.238 686.787 204.727C687.393 205.084 687.988 205.438 688.571 205.787C671.336 199.12 608.804 178.33 608.804 178.33Z" fill="black" stroke="black"/>
<path d="M623.518 251.895C623.518 251.895 453.471 210.792 305.284 225.164C240.289 231.468 173.426 259.064 115.36 291.028C92.2239 300.332 70.3499 310.586 49.9248 321.668C52.6736 319.865 55.4617 318.055 58.2873 316.242C126.232 272.637 216.53 226.477 304.485 217.946C454.082 203.437 559.155 222.408 626.958 245.146C660.846 256.51 685.388 268.803 701.5 278.292C702.106 278.649 702.701 279.002 703.284 279.352C686.049 272.684 623.518 251.895 623.518 251.895Z" fill="black" stroke="black"/>
<path d="M634.42 342.246C626.586 339.088 618.054 335.919 608.804 332.817C542.37 310.538 438.758 291.713 290.571 306.086C225.576 312.39 100.647 371.949 100.647 371.949C100.647 371.949 40.7487 398.977 43.5743 397.164C111.519 353.559 201.817 307.399 289.772 298.868C439.369 284.359 544.442 303.33 612.245 326.067C646.133 337.432 670.675 349.724 686.787 359.213C687.393 359.571 687.988 359.924 688.571 360.273C671.336 353.606 653.251 347.581 634.42 342.246Z" fill="black" stroke="black"/>
<path d="M649.133 415.811C641.299 412.653 632.767 409.483 623.518 406.381C557.083 384.103 453.471 365.278 305.284 379.651C240.289 385.955 173.426 413.55 115.36 445.514C92.2239 454.818 70.3499 465.072 49.9248 476.155C52.6736 474.351 55.4617 472.542 58.2873 470.728C126.232 427.123 216.53 380.963 304.485 372.433C454.082 357.923 559.155 376.895 626.958 399.632C660.846 410.996 685.388 423.289 701.5 432.778C702.106 433.135 702.701 433.489 703.284 433.838C686.049 427.171 667.964 421.145 649.133 415.811Z" fill="black" stroke="black"/>
<path d="M663.846 496.732C656.012 493.574 647.48 490.405 638.231 487.303C571.796 465.024 468.184 446.199 319.997 460.572C255.002 466.876 188.139 494.472 130.074 526.435C106.937 535.739 85.0631 545.994 64.638 557.076C67.3867 555.273 70.1748 553.463 73.0004 551.65C140.945 508.045 231.243 461.885 319.198 453.354C468.796 438.845 573.868 457.816 641.671 480.553C675.56 491.918 700.101 504.21 716.213 513.699C716.82 514.057 717.414 514.41 717.997 514.759C700.762 508.092 682.677 502.067 663.846 496.732Z" fill="black" stroke="black"/>
<path d="M478.241 452.909C482.408 468.688 467.441 486.324 444.811 492.301C422.181 498.277 400.458 490.33 396.29 474.551C392.123 458.771 407.091 441.135 429.72 435.159C443.147 431.613 456.254 432.968 465.565 437.953L439.047 284.971L612.59 239.141L642.142 409.624L642.023 409.655C644.634 426.062 630.281 443.32 608.712 449.016C586.082 454.992 564.077 445.98 559.563 428.885C555.048 411.791 569.734 393.089 592.364 387.112C606.102 383.484 619.609 385.381 629.114 391.255L607.979 260.734L453.719 301.473L478.241 452.909Z" fill="black"/>
<path d="M399.502 89.2127C400.536 85.5313 404.521 83.4313 408.401 84.5218C412.281 85.6123 414.588 89.4805 413.553 93.1619L411.178 101.612C420.414 107.277 440.716 120.522 451.333 133.564C465.402 150.846 481.345 181.245 481.345 181.245C481.345 181.245 455.331 158.615 436.404 146.44C426.691 140.192 413.52 133.03 403.784 127.924L359.227 286.462C355.088 301.187 324.891 318.056 297.729 310.422C270.567 302.788 256.726 273.542 260.864 258.817C265.003 244.092 290.377 238.343 317.539 245.977C331.301 249.845 342.881 256.405 350.419 263.853L399.502 89.2127Z" fill="black"/>
<path d="M153.338 8.38897C145.609 11.8182 136.063 22.247 129.767 34.0467C126.437 40.2764 120.641 55.4802 118.037 64.945C112.32 85.7852 110.701 104.812 112.807 127.573C114.311 144 117.029 157.864 123.755 183.637C127.262 197.123 127.377 197.678 126.596 198.53C126.162 199.008 121.715 203.662 116.641 208.817C80.4118 245.936 62.2238 270.293 50.0749 298.062C43.0201 314.221 39.1473 332.424 38.9789 350.045C38.9034 356.032 40.5149 369.648 42.0524 376.013C46.3439 394.055 55.0235 411.911 66.3005 426.043C74.243 436.015 87.1912 447.292 98.372 453.987C119.463 466.577 142.763 473.403 163.948 473.126C170.162 473.054 187.558 470.568 193.252 468.993C195.479 468.35 197.384 467.887 197.443 467.975C197.545 468.01 201.051 481.07 205.239 496.99L212.824 525.886L214.222 536.87C215.649 548.515 215.703 551.45 214.388 559.386C211.392 577.959 199.643 591.306 181.303 596.987C176.436 598.512 165.654 599.741 160.088 599.498C150.67 599 142.743 596.617 137.578 592.721L134.346 590.257L139.376 589.282C154.46 586.311 163.22 580.008 167.152 569.342C169.078 564.085 169.353 559.782 168.199 552.518C166.507 541.948 162.664 535.144 155.075 529.4C150.281 525.745 146.751 524.076 141.214 522.833C137.891 522.088 136.908 522.062 130.771 522.788C125.407 523.423 123.496 523.839 121.453 524.793C110.218 530.06 102.645 539.354 100.113 551.088C98.7442 557.322 98.6682 561.649 99.7873 568.206C103.062 587.175 116.53 602.851 135.42 609.677C141.105 611.756 146.234 612.857 153.214 613.454C159.748 614.009 175.131 612.33 181.753 610.313C201.183 604.313 214.404 594.303 221.9 579.799C229.956 564.233 230.348 547.676 223.206 520.862C215.578 492.018 208.285 463.94 208.419 463.829C208.505 463.724 210.221 462.905 212.264 461.951C226.083 455.334 239.457 444.12 247.467 432.307C260.527 413.065 264.808 390.449 260.005 366.015C257.166 351.549 253.253 341.669 246.232 331.208C239.503 321.14 230.87 313.195 220.422 307.315C215.121 304.337 204.525 300.515 198.413 299.388C189.238 297.627 177.758 297.515 169.851 299.02C165.486 299.821 165.438 299.827 165.069 298.78C164.852 298.188 163.197 292.074 161.46 285.258C159.668 278.401 156.242 265.19 153.76 255.806L149.294 238.78L150.515 237.497C154.486 233.374 167.319 218.428 172.657 211.771C194.24 184.641 203.249 158.904 203.191 124.466C203.11 100.185 201.389 84.3999 196.897 67.5671C190.881 44.8894 181.84 26.4601 171.001 14.7908C163.527 6.70853 159.994 5.4188 153.338 8.38897ZM173.314 59.5886C178.39 61.0753 182.413 65.2487 184.718 71.4757C186.09 75.2037 187.255 84.2224 187.06 89.6067C186.644 102.655 181.791 121.685 175.558 134.853C169.784 146.923 157.83 164.754 147.97 175.837C140.881 183.84 136.53 188.482 136.314 188.318C136.099 188.154 134.292 181.583 132.364 173.983C127.651 155.279 126.93 138.427 130.116 120.211C133.997 98.3542 140.662 81.387 149.952 70.0396C154.579 64.4155 157.391 62.09 162.02 60.2137C164.825 59.0751 170.325 58.7563 173.314 59.5886ZM147.903 276.71L154.82 303.266L152.208 304.382C141.534 309.014 129.13 319.306 122.22 329.234C111.713 344.378 106.89 361.175 108.164 378.151C109.56 396.157 118.23 412.685 131.712 423.092C139.431 429.106 147.817 432.478 156.269 433.091C159.778 433.34 160.164 433.294 161.187 432.414C162.532 431.353 162.52 429.599 161.222 428.567C160.737 428.197 158.929 427.415 157.192 426.814C144.467 422.389 135.398 412.835 131.316 399.465C125.49 380.465 135.153 357.355 153.415 346.464C156.481 344.63 164.269 341.289 164.706 341.664C164.76 341.705 171.544 367.566 179.735 399.095C189.892 438.125 194.47 456.514 194.154 456.741C193.886 456.962 191.525 457.716 188.869 458.458C175.382 462.094 161.047 463.933 151.208 463.2C131.043 461.743 108.368 452.329 94.5607 439.588C77.7947 424.208 68.7855 407.293 66.3599 386.8C65.0475 375.711 65.5044 366.737 67.8662 355.641C72.2353 335.007 81.2945 317.567 99.5948 294.573C110.895 280.331 140.255 248.105 140.754 249.422C140.9 249.832 144.118 262.118 147.903 276.71ZM184.541 339.506C192.74 340.054 202.328 342.81 209.26 346.734C214.25 349.559 221.857 355.87 225.078 359.901C232.848 369.656 236.346 378.921 237.518 392.968C239.104 411.331 234.949 425.913 224.817 437.597C220.206 442.935 210.943 449.962 206.345 451.692L205.171 452.116L202.742 442.772C201.397 437.618 197.911 424.319 194.977 413.185C179.506 354.098 176.178 341.303 176.068 340.367C175.951 339.384 176.091 339.32 178.293 339.297C179.566 339.289 182.37 339.384 184.541 339.506Z" fill="black"/>
</svg>
