<svg width="145" height="74" viewBox="0 0 145 74" fill="none" xmlns="http://www.w3.org/2000/svg">
<path d="M0 36H145M0 58H145M0 47H145M0 25H145M0 14H145" stroke="url(#paint0_radial_22_312)"/>
<path fill-rule="evenodd" clip-rule="evenodd" d="M40.013 40.8278C38.8754 41.0609 37.821 41.6846 36.8147 42.6782C35.8072 43.69 35.2678 44.8441 35.1797 46.1209C35.1242 46.9235 35.3357 47.8544 35.7997 48.8577C36.2623 49.8792 37.0184 50.6461 38.0299 51.174C38.3726 51.2709 38.5247 51.4647 38.507 51.7201C38.5007 51.8113 38.3663 51.8936 38.0502 51.9451C36.414 51.4108 35.1032 50.4224 34.1338 49.0177C33.1657 47.5948 32.7225 46.0248 32.8069 44.2712C32.9915 42.3963 33.6797 40.6844 34.8702 39.1537C36.0802 37.606 37.5686 36.554 39.3353 35.9977L38.5198 29.4355C35.5405 31.5759 33.0856 33.8441 31.1343 36.2754C29.1842 38.6884 28.079 41.3795 27.8005 44.3476C27.7452 45.6816 27.9302 46.9956 28.357 48.2712C28.7824 49.5651 29.4729 50.749 30.4258 51.8593C32.3513 54.063 34.967 55.3246 38.235 55.6599C39.3562 55.6639 40.5595 55.5453 41.8631 55.3053L40.013 40.8278ZM41.3432 40.7362L43.2292 54.9596C46.1254 54.023 47.7044 51.6577 47.9639 47.9003C47.8861 46.6304 47.5982 45.4743 47.0453 44.4282C46.512 43.3651 45.7623 42.507 44.7778 41.8527C43.7934 41.1984 42.6607 40.827 41.3432 40.7362ZM38.9018 21.508C39.5308 21.1848 40.2703 20.5943 41.0823 19.7523C41.893 18.9285 42.6968 17.9393 43.4727 16.8199C44.2683 15.6835 44.9187 14.5187 45.4239 13.3257C45.9279 12.1508 46.2086 11.0156 46.2816 9.95767C46.3131 9.50167 46.308 9.04314 46.2442 8.63555C46.2164 7.97387 46.0504 7.44927 45.7266 7.07874C45.4016 6.72645 44.975 6.51377 44.426 6.47592C43.3281 6.40022 42.2933 7.00698 41.3218 8.29618C40.5641 9.41686 39.9011 10.764 39.3902 12.3049C38.8597 13.8627 38.5135 15.415 38.3673 16.9994C38.3341 18.8114 38.5249 20.309 38.9018 21.508ZM37.6759 22.4864C37.0565 19.4747 36.8068 16.4336 36.9269 13.363C37.0813 11.3943 37.4098 9.56593 37.9124 7.87786C38.3968 6.18853 39.0295 4.74768 39.8131 3.51882C40.5783 2.28869 41.4319 1.37622 42.3556 0.780136C43.1828 0.250705 43.7715 -0.0202659 44.0825 0.00118146C44.3204 0.017582 44.5154 0.122661 44.6871 0.299437C44.8587 0.476214 45.0777 0.766214 45.3453 1.1512C47.3101 4.3839 48.1511 8.18056 47.8513 12.5217C47.709 14.5828 47.2959 16.5703 46.6084 18.5388C45.9404 20.4904 45.0226 22.3331 43.8573 24.0305C42.6726 25.7449 41.3212 27.2095 39.7836 28.4413L40.7695 35.7301C41.581 35.6944 42.135 35.6593 42.4461 35.6807C43.8368 35.7766 45.061 36.1542 46.1735 36.8174C47.2861 37.4806 48.2201 38.333 48.956 39.3917C49.6931 40.4322 50.2372 41.606 50.5882 42.913C50.9209 44.2189 51.0668 45.5668 50.9711 46.953C50.8225 49.1054 50.1192 51.0362 48.8625 52.7272C47.6057 54.4183 45.8145 55.596 43.4692 56.2773C43.5538 57.1812 43.7206 58.4939 43.9903 60.1802C44.2404 61.8836 44.4229 63.234 44.5379 64.2316C44.6529 65.2291 44.6606 66.1827 44.5963 67.1129C44.4968 68.5539 44.061 69.8067 43.2875 70.8897C42.4957 71.9713 41.4837 72.7813 40.2332 73.3181C39.0009 73.8563 37.6619 74.0755 36.2346 73.9771C34.2217 73.8384 32.504 73.1518 31.0804 71.9357C29.6579 70.7014 28.9573 69.132 29.0176 67.1935C29.1317 66.34 29.3884 65.5513 29.8073 64.8104C30.2262 64.0696 30.7631 63.4835 31.4363 63.0534C32.0925 62.6038 32.8604 62.4002 33.7242 62.4048C34.4379 62.454 35.1011 62.7013 35.7151 63.1285C36.3096 63.5727 36.7854 64.1369 37.1231 64.8383C37.4425 65.5384 37.5921 66.3001 37.5367 67.1027C37.4624 68.1789 37.0334 69.0656 36.2498 69.763C35.4662 70.4604 34.5065 70.7791 33.3903 70.7021L32.9694 70.6731C33.6075 71.8167 34.7396 72.4629 36.3682 72.5752C37.1917 72.632 38.046 72.5076 38.9104 72.2373C39.7944 71.95 40.5396 71.5432 41.1838 71.0012C41.8279 70.4591 42.2734 69.8667 42.4834 69.2215C42.8461 68.4951 43.0643 67.4655 43.1537 66.1704C43.2142 65.2949 43.1831 64.4131 43.0789 63.5262C42.9734 62.6576 42.7966 61.4908 42.5472 60.0441C42.2965 58.6156 42.1158 57.5036 42.0211 56.7456C40.9042 56.9435 39.7596 57.0112 38.5702 56.9292C36.5756 56.7917 34.7185 56.2605 33.0002 55.3173C31.2818 54.3741 29.8045 53.136 28.5511 51.5835C27.316 50.0322 26.3864 48.3187 25.7646 46.4065C25.1598 44.5137 24.9091 42.5538 25.0293 40.5461C25.231 38.6907 25.7021 36.9272 26.4767 35.2945C27.2526 33.6436 28.2052 32.0965 29.3516 30.6727C30.4979 29.249 31.672 27.9554 32.8727 26.8103C34.0903 25.6846 35.6796 24.2364 37.6759 22.4864Z" fill="#0F172A"/>
<path d="M114 30.6786C114.013 31.3447 113.731 32.0106 113.226 32.4456C112.579 33.0387 111.594 33.1601 110.788 32.8582C109.99 32.5484 109.4 31.7548 109.355 30.8925C109.294 30.2186 109.508 29.5115 109.994 29.0316C110.451 28.5414 111.133 28.3019 111.795 28.3424C112.477 28.3569 113.135 28.7022 113.542 29.2507C113.855 29.6553 114.004 30.1693 114 30.6786Z" fill="#0F172A"/>
<path d="M114 41.2152C114.013 41.8818 113.732 42.5486 113.226 42.9839C112.579 43.577 111.594 43.6985 110.788 43.3966C109.99 43.0867 109.4 42.2924 109.355 41.4296C109.292 40.7552 109.52 40.0575 109.993 39.5705C110.441 39.0683 111.13 38.84 111.79 38.8789C112.658 38.903 113.446 39.4975 113.805 40.2768C113.938 40.5702 114 40.8934 114 41.2152Z" fill="#0F172A"/>
<path d="M106.318 38.0107C106.399 43.1042 104.137 48.0553 100.55 51.6011C96.0834 56.0882 90.2386 58.942 84.2808 60.8486C83.4882 61.2799 82.2929 60.7113 83.5414 60.1252C85.9421 59.0278 88.4358 58.0858 90.6472 56.6076C95.5321 53.5721 99.6541 48.7921 100.655 42.9707C101.238 39.4272 101.075 35.7385 100.192 32.2592C99.5434 29.7011 97.7792 27.0603 94.9857 26.6823C92.4506 26.2923 89.7558 27.1749 87.9466 29.0176C87.4708 29.5022 86.5445 30.8446 86.6974 32.3836C87.7776 31.531 87.7038 31.6259 88.5898 31.2289C90.6294 30.3149 93.3349 31.6145 93.8436 33.8716C94.3856 35.9458 93.9665 38.5849 91.9297 39.6907C89.8029 40.853 86.6646 40.3719 85.4775 38.084C83.512 34.5595 84.5928 29.7408 87.7698 27.2951C91.0052 24.5966 95.726 24.4913 99.5364 25.8757C103.456 27.3409 105.793 31.4231 106.171 35.4662C106.273 36.3101 106.318 37.1608 106.318 38.0107Z" fill="#0F172A"/>
<defs>
<radialGradient id="paint0_radial_22_312" cx="0" cy="0" r="1" gradientUnits="userSpaceOnUse" gradientTransform="translate(72.5 36) rotate(90) scale(84 63.2042)">
<stop stop-color="#E7EAF4"/>
<stop offset="0.0001" stop-color="#D5D8E6"/>
<stop offset="1" stop-color="white" stop-opacity="0"/>
</radialGradient>
</defs>
</svg>
